<svg width="31" height="31" viewBox="0 0 31 31" fill="none" xmlns="http://www.w3.org/2000/svg">
<path fill-rule="evenodd" clip-rule="evenodd" d="M15.5 0C6.94271 0 0 6.94271 0 15.5C0 24.0573 6.94271 31 15.5 31C24.0405 31 31 24.0573 31 15.5C31 6.94271 24.0405 0 15.5 0ZM25.7377 7.14421C27.6462 9.46835 28.7022 12.3753 28.7305 15.3825C28.294 15.2985 23.923 14.4072 19.5184 14.9627C19.4163 14.7431 19.3324 14.508 19.2316 14.2729C18.9577 13.6263 18.6665 12.9871 18.3585 12.3561C23.2332 10.3721 25.4523 7.51492 25.7377 7.14421ZM15.5 2.28754C18.8622 2.28754 21.939 3.54692 24.2756 5.61487C24.0405 5.95071 22.0397 8.62446 17.3329 10.3889C15.1629 6.40538 12.7604 3.14262 12.3897 2.63888C13.4092 2.40081 14.453 2.28246 15.5 2.28625V2.28754ZM9.86833 3.53012C10.221 4.00158 12.5744 7.27983 14.7767 11.1794C8.58958 12.8275 3.12583 12.794 2.53813 12.794C3.39579 8.69162 6.17029 5.27904 9.86833 3.53012ZM2.25267 15.5168V15.1138C2.82487 15.1306 9.24575 15.2145 15.8539 13.2305C16.2401 13.9707 16.5927 14.7263 16.9286 15.4832C16.7607 15.5336 16.576 15.584 16.408 15.6343C9.58288 17.8366 5.95071 23.8545 5.64846 24.3595C3.4622 21.9332 2.25241 18.7828 2.25267 15.5168ZM15.5 28.7473C12.5576 28.752 9.69866 27.7696 7.38058 25.9573C7.61567 25.4691 10.3049 20.2908 17.7695 17.6855C17.803 17.6687 17.8211 17.6687 17.8534 17.6519C19.7199 22.4763 20.4755 26.5282 20.6783 27.6882C19.0805 28.3779 17.3329 28.7473 15.5 28.7473ZM22.8806 26.4779C22.7463 25.6706 22.0397 21.8046 20.3076 17.0461C24.4603 16.3912 28.0912 17.4672 28.5458 17.6183C27.9736 21.2996 25.8553 24.4771 22.8806 26.4779Z" fill="white"/>
</svg>
