<svg width="50" height="50" viewBox="0 0 50 50" fill="none" xmlns="http://www.w3.org/2000/svg">
<g clip-path="url(#clip0_91_17)">
<path fill-rule="evenodd" clip-rule="evenodd" d="M25 0C11.1979 0 0 11.1979 0 25C0 38.8021 11.1979 50 25 50C38.775 50 50 38.8021 50 25C50 11.1979 38.775 0 25 0ZM41.5125 11.5229C44.5906 15.2715 46.2939 19.9602 46.3396 24.8104C45.6354 24.675 38.5854 23.2375 31.4812 24.1333C31.3167 23.7792 31.1812 23.4 31.0187 23.0208C30.5769 21.9779 30.1073 20.947 29.6104 19.9292C37.4729 16.7292 41.0521 12.1208 41.5125 11.5229ZM25 3.68958C30.4229 3.68958 35.3854 5.72083 39.1542 9.05625C38.775 9.59792 35.5479 13.9104 27.9562 16.7563C24.4562 10.3313 20.5812 5.06875 19.9833 4.25625C21.6278 3.87227 23.3114 3.68139 25 3.6875V3.68958ZM15.9167 5.69375C16.4854 6.45417 20.2812 11.7417 23.8333 18.0312C13.8542 20.6896 5.04167 20.6354 4.09375 20.6354C5.47708 14.0187 9.95208 8.51458 15.9167 5.69375ZM3.63333 25.0271V24.3771C4.55625 24.4042 14.9125 24.5396 25.5708 21.3396C26.1937 22.5333 26.7625 23.7521 27.3042 24.9729C27.0333 25.0542 26.7354 25.1354 26.4646 25.2167C15.4563 28.7687 9.59792 38.475 9.11042 39.2896C5.58419 35.3761 3.63292 30.2949 3.63333 25.0271ZM25 46.3667C20.2542 46.3741 15.643 44.7897 11.9042 41.8667C12.2833 41.0792 16.6208 32.7271 28.6604 28.525C28.7146 28.4979 28.7437 28.4979 28.7958 28.4708C31.8062 36.2521 33.025 42.7875 33.3521 44.6583C30.775 45.7708 27.9562 46.3667 25 46.3667ZM36.9042 42.7062C36.6875 41.4042 35.5479 35.1687 32.7542 27.4937C39.4521 26.4375 45.3083 28.1729 46.0417 28.4167C45.1187 34.3542 41.7021 39.4792 36.9042 42.7062Z" fill="#1E1E1E"/>
</g>
<defs>
<clipPath id="clip0_91_17">
<rect width="50" height="50" fill="white"/>
</clipPath>
</defs>
</svg>
