<svg width="50" height="50" viewBox="0 0 50 50" fill="none" xmlns="http://www.w3.org/2000/svg">
<path fill-rule="evenodd" clip-rule="evenodd" d="M15.5518 2.22075C17.9955 2.10825 18.7747 2.08325 24.9997 2.08325C31.2247 2.08325 32.0038 2.11034 34.4455 2.22075C36.8872 2.33117 38.5538 2.72075 40.0122 3.28534C41.5393 3.86242 42.9247 4.7645 44.0705 5.93117C45.2372 7.07492 46.1372 8.45825 46.7122 9.98742C47.2788 11.4458 47.6663 13.1124 47.7788 15.5499C47.8913 17.9978 47.9163 18.777 47.9163 24.9999C47.9163 31.2249 47.8893 32.0041 47.7788 34.4478C47.6684 36.8853 47.2788 38.552 46.7122 40.0103C46.1372 41.5397 45.2357 42.9253 44.0705 44.0707C42.9247 45.2374 41.5393 46.1374 40.0122 46.7124C38.5538 47.2791 36.8872 47.6666 34.4497 47.7791C32.0038 47.8916 31.2247 47.9166 24.9997 47.9166C18.7747 47.9166 17.9955 47.8895 15.5518 47.7791C13.1143 47.6687 11.4476 47.2791 9.98926 46.7124C8.45993 46.1373 7.0743 45.2359 5.92884 44.0707C4.76297 42.9263 3.86075 41.5413 3.28509 40.0124C2.72051 38.5541 2.33301 36.8874 2.22051 34.4499C2.10801 32.002 2.08301 31.2228 2.08301 24.9999C2.08301 18.7749 2.11009 17.9958 2.22051 15.5541C2.33092 13.1124 2.72051 11.4458 3.28509 9.98742C3.8616 8.45842 4.76451 7.07349 5.93092 5.92909C7.07476 4.76346 8.45899 3.86126 9.98717 3.28534C11.4455 2.72075 13.1122 2.33325 15.5497 2.22075H15.5518ZM34.2601 6.34575C31.8434 6.23534 31.1184 6.21242 24.9997 6.21242C18.8809 6.21242 18.1559 6.23534 15.7393 6.34575C13.5038 6.44783 12.2913 6.82075 11.483 7.13533C10.4143 7.552 9.64967 8.04575 8.84759 8.84784C8.08727 9.58753 7.50213 10.488 7.13509 11.4833C6.82051 12.2916 6.44759 13.5041 6.34551 15.7395C6.23509 18.1562 6.21217 18.8812 6.21217 24.9999C6.21217 31.1187 6.23509 31.8437 6.34551 34.2603C6.44759 36.4958 6.82051 37.7083 7.13509 38.5166C7.50176 39.5103 8.08717 40.4124 8.84759 41.152C9.58717 41.9124 10.4893 42.4978 11.483 42.8645C12.2913 43.1791 13.5038 43.552 15.7393 43.6541C18.1559 43.7645 18.8788 43.7874 24.9997 43.7874C31.1205 43.7874 31.8434 43.7645 34.2601 43.6541C36.4955 43.552 37.708 43.1791 38.5163 42.8645C39.5851 42.4478 40.3497 41.9541 41.1518 41.152C41.9122 40.4124 42.4976 39.5103 42.8643 38.5166C43.1788 37.7083 43.5518 36.4958 43.6538 34.2603C43.7643 31.8437 43.7872 31.1187 43.7872 24.9999C43.7872 18.8812 43.7643 18.1562 43.6538 15.7395C43.5518 13.5041 43.1788 12.2916 42.8643 11.4833C42.4476 10.4145 41.9538 9.64992 41.1518 8.84784C40.412 8.08757 39.5116 7.50244 38.5163 7.13533C37.708 6.82075 36.4955 6.44783 34.2601 6.34575ZM22.0726 32.0645C23.7073 32.745 25.5275 32.8368 27.2224 32.3243C28.9173 31.8118 30.3817 30.7268 31.3655 29.2546C32.3493 27.7824 32.7915 26.0142 32.6164 24.2522C32.4414 22.4902 31.6601 20.8436 30.4059 19.5937C29.6064 18.7947 28.6397 18.1829 27.5754 17.8023C26.511 17.4218 25.3756 17.2819 24.2507 17.3929C23.1258 17.5038 22.0396 17.8628 21.0701 18.4439C20.1006 19.0251 19.2721 19.814 18.6441 20.7538C18.0161 21.6936 17.6042 22.7609 17.4382 23.879C17.2723 24.9971 17.3562 26.138 17.6841 27.2197C18.012 28.3015 18.5757 29.297 19.3345 30.1348C20.0933 30.9725 21.0285 31.6316 22.0726 32.0645ZM16.6705 16.6708C17.7643 15.5769 19.0628 14.7093 20.492 14.1173C21.9211 13.5254 23.4528 13.2207 24.9997 13.2207C26.5465 13.2207 28.0783 13.5254 29.5074 14.1173C30.9365 14.7093 32.235 15.5769 33.3288 16.6708C34.4226 17.7646 35.2903 19.0631 35.8823 20.4922C36.4742 21.9213 36.7789 23.453 36.7789 24.9999C36.7789 26.5468 36.4742 28.0785 35.8823 29.5076C35.2903 30.9368 34.4226 32.2353 33.3288 33.3291C31.1198 35.5381 28.1237 36.7791 24.9997 36.7791C21.8756 36.7791 18.8795 35.5381 16.6705 33.3291C14.4615 31.1201 13.2205 28.124 13.2205 24.9999C13.2205 21.8759 14.4615 18.8798 16.6705 16.6708ZM39.3913 14.9749C39.6624 14.7192 39.8794 14.4118 40.0295 14.0707C40.1796 13.7296 40.2597 13.3619 40.2651 12.9894C40.2706 12.6168 40.2012 12.2469 40.0611 11.9016C39.921 11.5563 39.7131 11.2426 39.4496 10.9792C39.1861 10.7157 38.8724 10.5077 38.5272 10.3677C38.1819 10.2276 37.812 10.1582 37.4394 10.1636C37.0668 10.1691 36.6991 10.2492 36.3581 10.3993C36.017 10.5494 35.7095 10.7664 35.4538 11.0374C34.9566 11.5646 34.6843 12.2648 34.6949 12.9894C34.7054 13.714 34.998 14.4059 35.5104 14.9183C36.0228 15.4308 36.7148 15.7233 37.4394 15.7339C38.164 15.7444 38.8642 15.4722 39.3913 14.9749Z" fill="#1E1E1E"/>
</svg>
