<svg width="1410" height="120" viewBox="0 0 1410 120" fill="none" xmlns="http://www.w3.org/2000/svg">
<g filter="url(#filter0_d_24_138)">
<rect x="4" width="1402" height="112" fill="#F9F9F9"/>
</g>
<path d="M591.3 71.2514L588.142 35.8125H622.859L619.696 71.2458L605.479 75.1875L591.3 71.2514Z" fill="#1572B6"/>
<path d="M605.5 72.1753L616.989 68.9902L619.692 38.7108H605.5V72.1753Z" fill="#33A9DC"/>
<path d="M605.5 51.5498H611.252L611.648 47.099H605.5V42.7523H616.398L616.294 43.9181L615.227 55.8965H605.5V51.5498Z" fill="white"/>
<path d="M605.527 62.8379L605.507 62.8436L600.667 61.5357L600.358 58.0693H595.994L596.603 64.8939L605.506 67.3661L605.527 67.3604V62.8379Z" fill="#EBEBEB"/>
<path d="M610.882 55.7124L610.359 61.5329L605.512 62.8407V67.3632L614.422 64.8938L614.488 64.1597L615.243 55.7124H610.882Z" fill="white"/>
<path d="M605.516 42.7523V47.099H595.016L594.929 46.1217L594.731 43.9181L594.627 42.7523H605.516ZM605.5 51.5498V55.8965H600.72L600.633 54.9192L600.436 52.7156L600.332 51.5498H605.5Z" fill="#EBEBEB"/>
<g clip-path="url(#clip0_24_138)">
<path d="M536.86 41.8213L533.963 74.2761L520.94 77.8864L507.954 74.2811L505.06 41.8213H536.86Z" fill="#E44D26"/>
<path d="M520.96 75.1267L531.483 72.2094L533.958 44.4752H520.96V75.1267Z" fill="#F16529"/>
<path d="M515.328 52.4375H520.96V48.4564H510.978L511.073 49.5245L512.051 60.4952H520.96V56.5142H515.692L515.328 52.4375ZM516.226 62.4858H512.229L512.787 68.7367L520.942 71.0004L520.96 70.9954V66.8534L520.943 66.8581L516.509 65.6609L516.226 62.4858Z" fill="#EBEBEB"/>
<path d="M508.019 33H510.042V34.9988H511.892V33H513.916V39.0529H511.893V37.0261H510.042V39.0529H508.019V33H508.019ZM516.576 35.0073H514.795V33H520.381V35.0073H518.6V39.0529H516.576V35.0073H516.576H516.576ZM521.268 33H523.378L524.675 35.1268L525.972 33H528.082V39.0529H526.067V36.0528L524.675 38.2049H524.64L523.248 36.0528V39.0529H521.268V33ZM529.089 33H531.113V37.0522H533.958V39.0529H529.089V33H529.089Z" fill="black"/>
<path d="M520.946 60.4952H525.849L525.386 65.6584L520.946 66.8568V70.9986L529.108 68.7367L529.168 68.0641L530.103 57.5832L530.2 56.5142H520.946V60.4952ZM520.946 52.4278V52.4375H530.563L530.642 51.5427L530.824 49.5245L530.919 48.4564H520.946V52.4279V52.4278Z" fill="white"/>
</g>
<g clip-path="url(#clip1_24_138)">
<path d="M448.703 33H459.129L433.065 77.9593L407.002 33H426.94L433.065 43.4253L439.06 33H448.703Z" fill="#41B883"/>
<path d="M407.002 33L433.065 77.9593L459.129 33H448.703L433.065 59.9756L417.297 33H407.002Z" fill="#41B883"/>
<path d="M417.297 33L433.065 60.1059L448.703 33H439.06L433.065 43.4253L426.94 33H417.297Z" fill="#35495E"/>
</g>
<g clip-path="url(#clip2_24_138)">
<path d="M263.545 47.5705C263.007 47.386 262.465 47.2151 261.918 47.0579C262.01 46.6829 262.095 46.3125 262.17 45.9485C263.401 39.972 262.596 35.1572 259.847 33.5719C257.211 32.0522 252.9 33.6369 248.547 37.4258C248.118 37.7998 247.698 38.1847 247.288 38.58C247.014 38.3171 246.735 38.0594 246.451 37.8069C241.889 33.7557 237.315 32.0483 234.569 33.6381C231.936 35.1625 231.156 39.6888 232.264 45.3529C232.374 45.9138 232.499 46.4719 232.638 47.0265C231.99 47.2105 231.366 47.4063 230.768 47.6147C225.418 49.4798 222.002 52.4027 222.002 55.4344C222.002 58.5657 225.669 61.7064 231.241 63.6108C231.693 63.7646 232.148 63.9071 232.607 64.0381C232.458 64.6355 232.326 65.2369 232.21 65.8417C231.154 71.4075 231.979 75.8267 234.605 77.3415C237.318 78.9059 241.871 77.2981 246.304 73.4228C246.663 73.1077 247.015 72.7838 247.358 72.4511C247.802 72.8792 248.257 73.2947 248.724 73.6973C253.018 77.3925 257.259 78.8846 259.883 77.3656C262.593 75.7967 263.474 71.0492 262.331 65.2733C262.241 64.8207 262.14 64.3705 262.028 63.9229C262.347 63.8281 262.661 63.7306 262.967 63.6292C268.76 61.7102 272.528 58.6075 272.528 55.4344C272.528 52.3916 269.002 49.449 263.545 47.5705ZM262.288 61.5805C262.012 61.6719 261.729 61.7601 261.44 61.846C260.8 59.8215 259.937 57.669 258.881 55.4449C259.889 53.2738 260.719 51.1488 261.34 49.1376C261.857 49.2872 262.359 49.4449 262.842 49.6113C267.518 51.221 270.37 53.6007 270.37 55.4344C270.37 57.3876 267.29 59.9232 262.288 61.5805ZM260.213 65.6925C260.719 68.2464 260.791 70.5556 260.456 72.361C260.155 73.9831 259.55 75.0645 258.802 75.4977C257.21 76.4194 253.804 75.2214 250.132 72.0611C249.698 71.6868 249.274 71.3005 248.861 70.9026C250.285 69.3456 251.708 67.5355 253.097 65.5251C255.539 65.3084 257.847 64.9539 259.94 64.4702C260.041 64.8754 260.132 65.2829 260.213 65.6925ZM239.227 75.3385C237.672 75.8877 236.433 75.9035 235.684 75.4717C234.09 74.5525 233.427 71.004 234.331 66.2443C234.439 65.6819 234.562 65.1225 234.7 64.5669C236.77 65.0248 239.061 65.354 241.509 65.5525C242.907 67.5197 244.371 69.3278 245.846 70.9111C245.533 71.2145 245.212 71.5101 244.884 71.7977C242.923 73.5112 240.959 74.727 239.227 75.3385ZM231.939 61.5685C229.476 60.7263 227.441 59.6319 226.046 58.4376C224.793 57.3645 224.161 56.2989 224.161 55.4344C224.161 53.5946 226.903 51.2479 231.478 49.6529C232.033 49.4595 232.614 49.2769 233.217 49.1056C233.85 51.1622 234.679 53.3125 235.68 55.4869C234.666 57.6935 233.825 59.8782 233.186 61.959C232.768 61.8391 232.352 61.7088 231.939 61.5685ZM234.382 44.9382C233.433 40.0855 234.064 36.4249 235.651 35.5061C237.341 34.5276 241.079 35.9228 245.018 39.421C245.275 39.6496 245.528 39.8828 245.776 40.1206C244.308 41.697 242.858 43.4917 241.472 45.4472C239.096 45.6675 236.821 46.0211 234.73 46.495C234.601 45.9791 234.485 45.4601 234.382 44.9384V44.9382ZM256.177 50.32C255.683 49.4668 255.171 48.6243 254.641 47.7931C256.253 47.997 257.797 48.2676 259.248 48.5984C258.813 49.9942 258.27 51.4533 257.631 52.9494C257.164 52.0633 256.679 51.1867 256.177 50.32ZM247.289 41.6633C248.285 42.7419 249.282 43.946 250.263 45.2526C248.273 45.1586 246.28 45.1582 244.291 45.2514C245.273 43.9569 246.278 42.7543 247.289 41.6633ZM238.344 50.3348C237.849 51.1945 237.373 52.0657 236.918 52.9476C236.29 51.4569 235.752 49.991 235.313 48.5755C236.754 48.253 238.292 47.9893 239.893 47.7892C239.357 48.6254 238.841 49.4741 238.344 50.3346V50.3348ZM239.939 63.2333C238.284 63.0485 236.724 62.7985 235.283 62.4846C235.729 61.0438 236.279 59.5468 236.921 58.0241C237.378 58.9067 237.855 59.7784 238.353 60.6385C238.865 61.5227 239.395 62.3887 239.939 63.2333ZM247.349 69.3576C246.326 68.2539 245.305 67.0328 244.309 65.7195C245.276 65.7574 246.263 65.7767 247.265 65.7767C248.295 65.7767 249.313 65.7537 250.315 65.709C249.331 67.046 248.338 68.2689 247.349 69.3576ZM257.651 57.9463C258.327 59.4858 258.896 60.975 259.348 62.3911C257.883 62.7254 256.301 62.9946 254.635 63.1946C255.169 62.348 255.686 61.4908 256.186 60.6237C256.694 59.7422 257.183 58.8495 257.651 57.9463ZM254.316 59.5452C253.551 60.8748 252.742 62.1791 251.892 63.4561C250.352 63.5652 248.809 63.6193 247.265 63.6185C245.693 63.6185 244.163 63.5696 242.691 63.474C241.818 62.2 240.994 60.8934 240.221 59.5571H240.221C239.451 58.2278 238.732 56.8698 238.065 55.486C238.73 54.1018 239.447 52.7431 240.215 51.4129L240.214 51.4131C240.981 50.0824 241.799 48.7814 242.664 47.5129C244.167 47.3992 245.708 47.34 247.265 47.34H247.265C248.829 47.34 250.372 47.3998 251.874 47.5142C252.731 48.7809 253.543 50.0775 254.309 51.4014C255.079 52.7288 255.805 54.0808 256.487 55.4554C255.812 56.844 255.088 58.2081 254.316 59.5452ZM258.769 35.4418C260.461 36.4176 261.119 40.3525 260.056 45.5127C259.988 45.8419 259.911 46.1773 259.829 46.5173C257.732 46.0334 255.456 45.6736 253.073 45.45C251.684 43.4729 250.246 41.6755 248.802 40.1194C249.18 39.7546 249.568 39.3992 249.964 39.0536C253.694 35.8075 257.18 34.5258 258.769 35.4418ZM247.265 50.9226C249.757 50.9226 251.777 52.9427 251.777 55.4344C251.777 57.9262 249.757 59.9463 247.265 59.9463C244.773 59.9463 242.753 57.9262 242.753 55.4344C242.753 52.9427 244.773 50.9226 247.265 50.9226Z" fill="#00D8FF"/>
</g>
<g clip-path="url(#clip3_24_138)">
<path d="M319.021 40.5313L339.834 33.1154L361.209 40.3994L357.748 67.9371L339.834 77.8579L322.201 68.0689L319.021 40.5313Z" fill="#E23237"/>
<path d="M361.208 40.3994L339.834 33.1154V77.8579L357.747 67.9536L361.208 40.3994Z" fill="#B52E31"/>
<path d="M339.867 38.3395L326.897 67.1956L331.742 67.1132L334.346 60.6036H345.981L348.832 67.1956L353.463 67.278L339.867 38.3395ZM339.9 47.5847L344.284 56.7473H336.044L339.9 47.5847Z" fill="white"/>
</g>
<path d="M131 33H176V78H131V33Z" fill="#F7DF1E"/>
<path d="M142.832 70.6052L146.276 68.5211C146.94 69.699 147.545 70.6957 148.994 70.6957C150.384 70.6957 151.26 70.1522 151.26 68.0379V53.6594H155.489V68.0977C155.489 72.4776 152.921 74.4713 149.175 74.4713C145.793 74.4713 143.829 72.7193 142.832 70.6048M157.786 70.152L161.229 68.1585C162.135 69.6388 163.314 70.7261 165.398 70.7261C167.15 70.7261 168.267 69.85 168.267 68.6417C168.267 67.1919 167.119 66.6782 165.186 65.8327L164.129 65.3792C161.078 64.0807 159.054 62.4495 159.054 59.0059C159.054 55.8341 161.471 53.4175 165.247 53.4175C167.935 53.4175 169.868 54.354 171.258 56.8007L167.965 58.9154C167.24 57.6165 166.455 57.1031 165.247 57.1031C164.008 57.1031 163.223 57.8885 163.223 58.9154C163.223 60.184 164.008 60.6978 165.82 61.4832L166.877 61.9362C170.472 63.4769 172.496 65.0475 172.496 68.5814C172.496 72.3878 169.506 74.4719 165.488 74.4719C161.561 74.4719 159.024 72.5991 157.786 70.1522" fill="black"/>
<g clip-path="url(#clip4_24_138)">
<path d="M685.734 33C682.512 33 680.128 35.8202 680.234 38.8787C680.337 41.8169 680.204 45.6227 679.246 48.7262C678.285 51.8387 676.659 53.8103 674.005 54.0635V56.9215C676.659 57.1747 678.285 59.1463 679.246 62.259C680.204 65.3625 680.337 69.1679 680.234 72.1063C680.128 75.1643 682.512 77.985 685.734 77.985H718.751C721.973 77.985 724.357 75.1648 724.25 72.1063C724.147 69.1681 724.28 65.3625 725.238 62.259C726.2 59.1465 727.821 57.1745 730.475 56.9215V54.0635C727.821 53.8103 726.2 51.8387 725.239 48.7262C724.28 45.6232 724.147 41.8171 724.25 38.8787C724.357 35.8207 721.973 33 718.751 33H685.734H685.734ZM712.29 60.6911C712.29 64.9026 709.149 67.4565 703.936 67.4565H695.062C694.808 67.4565 694.565 67.3556 694.385 67.1761C694.206 66.9966 694.105 66.7532 694.105 66.4994V44.4856C694.105 44.3599 694.13 44.2354 694.178 44.1192C694.226 44.0031 694.296 43.8976 694.385 43.8087C694.474 43.7197 694.58 43.6492 694.696 43.6011C694.812 43.553 694.936 43.5282 695.062 43.5282H703.885C708.232 43.5282 711.085 45.883 711.085 49.498C711.085 52.0354 709.166 54.3071 706.721 54.7048V54.8374C710.049 55.2024 712.29 57.5074 712.29 60.6911ZM702.968 46.5624H697.908V53.7095H702.17C705.465 53.7095 707.281 52.3829 707.281 50.0115C707.281 47.7896 705.719 46.5624 702.968 46.5624H702.968ZM697.908 56.5454V64.4215H703.155C706.584 64.4215 708.401 63.0452 708.401 60.4586C708.401 57.8715 706.534 56.5449 702.934 56.5449H697.908V56.5454Z" fill="#7E13F8"/>
</g>
<path d="M798.741 59.2968C798.064 59.6076 797.323 60.0126 795.839 60.8268C795.277 61.1432 794.689 61.4597 794.142 61.7578C794.104 61.7198 794.065 61.672 794.027 61.6326C791.092 58.4967 785.664 56.2818 785.894 52.0701C785.98 50.5359 786.508 46.5084 796.319 41.6175C804.394 37.6378 810.819 38.7403 811.928 41.1857C813.523 44.6718 808.484 51.1589 800.145 52.0997C799.222 52.2869 798.269 52.2642 797.356 52.0335C796.443 51.8027 795.594 51.3698 794.871 50.7665C794.429 50.287 794.363 50.2589 794.2 50.3545C793.931 50.4951 794.104 50.9297 794.2 51.1786C794.518 51.7545 794.948 52.2608 795.465 52.6675C795.982 53.0743 796.576 53.3732 797.211 53.5467C800.492 54.256 803.914 53.9171 806.992 52.5778C812.046 50.6217 815.992 45.1837 814.836 40.6247C813.676 36.0023 806.004 34.4779 798.745 37.057C794.199 38.589 789.999 41.0006 786.384 44.1543C782.384 47.895 781.752 51.1462 782.01 52.5075C782.941 57.3407 789.604 60.4865 792.276 62.8167C792.135 62.894 792.017 62.9573 791.912 63.0178C790.579 63.6801 785.496 66.3365 784.229 69.1462C782.791 72.33 784.46 74.6123 785.563 74.9189C787.224 75.3169 788.968 75.186 790.552 74.5447C792.135 73.9033 793.479 72.7834 794.395 71.3414C795.173 70.1456 795.651 68.7796 795.788 67.3596C795.925 65.9396 795.717 64.5075 795.181 63.1851C795.497 62.9332 795.834 62.7088 796.188 62.5143C796.869 62.1122 797.517 61.7156 798.092 61.409C800.062 60.4866 802.211 60.0117 804.385 60.0182C808.95 60.5554 809.851 63.4031 809.678 64.6026C809.597 65.0282 809.426 65.4315 809.176 65.7854C808.927 66.1393 808.604 66.4356 808.23 66.6543C807.913 66.8554 807.808 66.9229 807.836 67.0664C807.874 67.2773 808.027 67.2675 808.296 67.2295C808.982 67.0127 809.586 66.5936 810.029 66.0271C810.472 65.4607 810.734 64.7734 810.779 64.0556C810.92 61.2431 808.238 58.1578 803.491 58.1859C802.069 58.1883 800.662 58.4688 799.348 59.0114C799.137 59.0986 798.932 59.1923 798.733 59.2926L798.741 59.2968ZM791.955 70.3204C790.439 71.97 788.33 72.5929 787.419 72.0656C786.434 71.5031 786.824 69.0632 788.684 67.3181C789.786 66.3253 790.977 65.4361 792.242 64.6617C792.463 64.5211 792.789 64.3354 793.182 64.0992L793.287 64.0415L793.518 63.9009C793.85 65.0134 793.88 66.1941 793.605 67.3221C793.331 68.4501 792.761 69.4848 791.955 70.3204Z" fill="#CD6799"/>
<path d="M915.758 51.0534C915.758 48.4901 913.124 45.7678 908.566 45.7678C903.448 45.7678 897.825 49.3209 896.966 56.4093C896.088 63.5686 900.795 66.7505 905.54 66.7505C910.285 66.7505 912.77 65.0005 915.31 62.6672C913.124 60.0685 910.304 61.2707 909.762 61.5358C909.164 61.8185 908.398 62.2075 906.829 62.2075C904.998 62.2075 903.13 61.4298 903.13 58.1948C914.862 57.0989 915.758 53.6164 915.758 51.0534ZM909.949 51.4776C909.874 52.2729 909.538 53.6342 903.597 54.3941C904.849 50.1872 907.24 49.869 908.342 49.869C909.37 49.869 910.023 50.6289 909.949 51.4776ZM890.072 52.1669C890.072 52.1669 887.551 59.6619 887.345 60.2806C887.27 59.6443 885.421 46.192 885.421 46.192C881.124 46.192 878.827 49.091 877.613 52.1493C877.613 52.1493 874.549 59.6619 874.287 60.2981C874.269 59.7149 873.82 52.2378 873.82 52.2378C873.559 48.4899 869.935 46.2099 867.002 46.2099L870.551 66.5914C875.053 66.5739 877.482 63.6925 878.752 60.6341C878.752 60.6341 881.461 54.0054 881.573 53.7048C881.592 53.9875 883.516 66.5914 883.516 66.5914C888.036 66.5914 890.465 63.8867 891.773 60.9347L898.105 46.2099C893.64 46.2099 891.287 49.091 890.072 52.1669ZM932.347 45.7324C929.563 45.7324 927.434 47.1643 925.64 49.2679V49.2503L927.247 37C923.548 37 920.541 40.0405 919.962 44.5656L917.159 66.4324C919.289 66.4324 921.549 65.8491 922.764 64.3642C923.847 65.6898 925.472 66.7505 927.882 66.7505C934.122 66.7505 938.399 59.8918 938.399 53.4573C938.362 47.5885 935.354 45.7327 932.347 45.7327V45.7324ZM931.768 56.2505C931.114 59.8388 929.003 62.2784 926.967 62.2784C924.912 62.2784 924.034 61.4119 924.034 61.4119C924.426 58.2654 924.669 56.3387 925.416 54.6771C926.164 53.0155 927.938 50.3638 929.787 50.3638C931.599 50.3638 932.422 52.6441 931.768 56.2502V56.2505ZM953.979 46.2093H949.626L949.645 45.9972C949.944 43.3103 950.616 41.8963 952.839 41.6666C954.353 41.5251 955.025 40.7825 955.193 39.9696C955.324 39.3333 955.735 37.1233 955.735 37.1233C946.992 37.0703 944.246 40.6413 943.537 46.0857L943.518 46.2096H943.424C942.005 46.2096 940.436 47.7297 940.174 49.6564L940.081 50.3635H942.995L940.548 69.4901L939.8 72.9196C939.894 72.9196 940.006 72.9372 940.099 72.9372C944.19 72.7957 946.805 69.7377 947.385 65.3007L949.29 50.3635H950.654C951.999 50.3635 953.568 49.091 953.848 46.9695L953.979 46.2096V46.2093ZM976.62 45.856C971.595 45.856 966.85 49.3561 965.393 54.8535C963.936 60.3512 966.14 66.8563 973.538 66.8563C980.916 66.8563 985.176 60.086 985.176 54.4469C985.176 48.8432 981.159 45.856 976.62 45.856ZM978.656 56.0733C978.394 58.5657 977.236 62.3487 974.061 62.3487C970.866 62.3487 971.314 57.9294 971.632 55.8258C971.968 53.5809 973.295 50.3811 976.153 50.3811C978.712 50.3811 978.955 53.2625 978.656 56.0733ZM1010 52.1666C1010 52.1666 1007.48 59.6616 1007.27 60.2803C1007.2 59.644 1005.35 46.1917 1005.35 46.1917C1001.05 46.1917 998.756 49.0907 997.542 52.149C997.542 52.149 994.478 59.6616 994.217 60.2979C994.198 59.7146 993.75 52.2375 993.75 52.2375C993.488 48.4896 989.864 46.2096 986.932 46.2096L990.462 66.5912C994.964 66.5736 997.393 63.6922 998.663 60.6339C998.663 60.6339 1001.37 54.0051 1001.47 53.7046C1001.48 53.9873 1003.41 66.5912 1003.41 66.5912C1007.93 66.5912 1010.36 63.8864 1011.66 60.9344L1018 46.2099C1013.55 46.2099 1011.2 49.091 1010 52.1669V52.1666ZM958.089 37.1236L954.427 65.0711L953.68 68.5181C953.773 68.5181 953.885 68.536 953.979 68.536C957.92 68.483 960.723 65.2126 961.246 61.0938L963.357 45.0607C963.992 40.1641 960.909 37.1239 958.089 37.1239V37.1236Z" fill="#4353FF"/>
<g clip-path="url(#clip5_24_138)">
<path d="M1270.43 33H1239.65C1235.43 33 1232 36.425 1232 40.65V70.278C1232 74.503 1235.43 77.928 1239.65 77.928H1270.43C1274.65 77.928 1278.08 74.503 1278.08 70.278V40.65C1278.08 36.425 1274.65 33 1270.43 33Z" fill="#470137"/>
<path d="M1256.22 44.8152L1250.47 54.3053L1256.63 64.3826C1256.67 64.4532 1256.68 64.536 1256.66 64.6145C1256.65 64.6479 1256.63 64.6562 1256.6 64.6575L1256.56 64.6569L1256.52 64.6559C1256.49 64.6559 1256.47 64.6569 1256.44 64.6616H1252.01L1251.92 64.6602C1251.68 64.6539 1251.51 64.6197 1251.4 64.4444C1250.99 63.6449 1250.58 62.8463 1250.17 62.0487C1249.8 61.3374 1249.41 60.6313 1249.02 59.9307L1248.85 59.6222C1248.38 58.7922 1247.93 57.9576 1247.48 57.1184H1247.45C1247.03 57.9488 1246.6 58.7732 1246.16 59.5912C1245.72 60.4156 1245.28 61.235 1244.85 62.0487C1244.42 62.8632 1243.97 63.6721 1243.52 64.4753C1243.45 64.6391 1243.33 64.6733 1243.16 64.6789L1243.09 64.68H1238.85L1238.83 64.6805L1238.77 64.6859C1238.74 64.6879 1238.72 64.6807 1238.71 64.6299C1238.7 64.5546 1238.72 64.4776 1238.76 64.4136L1244.72 54.6144L1238.91 44.7846C1238.85 44.7025 1238.84 44.6355 1238.88 44.5837C1238.91 44.5573 1238.93 44.5366 1238.97 44.5231C1239 44.5097 1239.03 44.5039 1239.07 44.5063H1243.43C1243.52 44.5011 1243.62 44.517 1243.7 44.5527C1243.78 44.5947 1243.84 44.6528 1243.89 44.7228C1244.26 45.5472 1244.67 46.3716 1245.13 47.1957C1245.58 48.0145 1246.04 48.8286 1246.5 49.6377C1246.96 50.4344 1247.39 51.249 1247.79 52.0798H1247.82C1248.22 51.2492 1248.64 50.4249 1249.07 49.607C1249.49 48.8033 1249.92 47.9942 1250.37 47.1802C1250.8 46.3767 1251.23 45.5678 1251.65 44.7538C1251.67 44.6775 1251.72 44.6084 1251.77 44.5527C1251.85 44.5141 1251.94 44.498 1252.02 44.5063H1256.07C1256.11 44.497 1256.15 44.5001 1256.18 44.515C1256.22 44.53 1256.25 44.556 1256.27 44.5891C1256.28 44.6223 1256.29 44.6608 1256.29 44.699C1256.28 44.7371 1256.27 44.7727 1256.24 44.8004L1256.22 44.8155L1256.22 44.8152ZM1265.31 65.0603L1265.1 65.0627C1263.67 65.0844 1262.26 64.7887 1260.97 64.1972C1259.76 63.6392 1258.76 62.7283 1258.08 61.5851C1257.4 60.4518 1257.05 59.0395 1257.03 57.3488L1257.03 57.2111C1257.02 55.7923 1257.38 54.3956 1258.08 53.1616C1258.78 51.9403 1259.8 50.934 1261.03 50.2517L1261.14 50.1941C1262.48 49.4522 1264.1 49.0812 1265.99 49.0812L1266.07 49.0821L1266.17 49.0851L1266.28 49.0898L1266.39 49.0967L1266.59 49.1107L1266.82 49.1287L1266.98 49.1431V43.0533C1266.98 42.9093 1267.04 42.837 1267.17 42.837H1271.06C1271.09 42.8334 1271.11 42.8357 1271.14 42.8437C1271.16 42.8518 1271.18 42.8653 1271.2 42.8833C1271.22 42.9013 1271.23 42.9232 1271.24 42.9474C1271.25 42.9715 1271.25 42.9972 1271.25 43.0224V61.2915C1271.25 61.5982 1271.26 61.9287 1271.28 62.2822L1271.34 63.0841L1271.37 63.548C1271.37 63.6122 1271.36 63.6761 1271.33 63.7313C1271.29 63.7865 1271.24 63.8303 1271.19 63.8572C1270.18 64.2762 1269.13 64.587 1268.06 64.7844C1267.15 64.9522 1266.23 65.0444 1265.31 65.0603ZM1266.98 61.2296V52.7906C1266.81 52.7454 1266.64 52.7144 1266.47 52.6979C1266.26 52.6767 1266.05 52.6664 1265.84 52.667C1265.09 52.6595 1264.35 52.829 1263.67 53.1616C1263.02 53.4872 1262.46 53.9771 1262.05 54.5836C1261.64 55.1805 1261.43 55.9599 1261.42 56.9218L1261.42 57.0257C1261.4 57.6995 1261.51 58.3702 1261.74 59.0039C1261.93 59.5145 1262.22 59.9786 1262.61 60.3641C1262.97 60.7187 1263.42 60.9833 1263.91 61.1369C1264.42 61.3034 1264.96 61.3869 1265.5 61.3844C1265.79 61.3844 1266.05 61.3739 1266.3 61.3532C1266.5 61.3384 1266.69 61.3059 1266.89 61.256L1266.98 61.2296Z" fill="#FF61F6"/>
</g>
<path d="M1163.5 78C1167.64 78 1171 74.64 1171 70.5V63H1163.5C1159.36 63 1156 66.36 1156 70.5C1156 74.64 1159.36 78 1163.5 78Z" fill="#0ACF83"/>
<path d="M1156 55.5C1156 51.36 1159.36 48 1163.5 48H1171V63H1163.5C1159.36 63 1156 59.64 1156 55.5Z" fill="#A259FF"/>
<path d="M1156 40.5C1156 36.36 1159.36 33 1163.5 33H1171V48H1163.5C1159.36 48 1156 44.64 1156 40.5Z" fill="#F24E1E"/>
<path d="M1171 33H1178.5C1182.64 33 1186 36.36 1186 40.5C1186 44.64 1182.64 48 1178.5 48H1171V33Z" fill="#FF7262"/>
<path d="M1186 55.5C1186 59.64 1182.64 63 1178.5 63C1174.36 63 1171 59.64 1171 55.5C1171 51.36 1174.36 48 1178.5 48C1182.64 48 1186 51.36 1186 55.5Z" fill="#1ABCFE"/>
<g clip-path="url(#clip6_24_138)">
<path d="M1102.43 33H1071.65C1067.43 33 1064 36.425 1064 40.65V70.278C1064 74.503 1067.43 77.928 1071.65 77.928H1102.43C1106.65 77.928 1110.08 74.503 1110.08 70.278V40.65C1110.08 36.425 1106.65 33 1102.43 33Z" fill="#001E36"/>
<path d="M1074.38 64.5064V44.7535C1074.38 44.6095 1074.44 44.5372 1074.56 44.5372L1074.76 44.5366L1075.09 44.533L1075.56 44.5238L1077.11 44.4909L1078.78 44.4599C1079.37 44.4499 1079.95 44.4445 1080.53 44.4445C1082.1 44.4445 1083.41 44.6403 1084.49 45.0318C1085.45 45.3589 1086.33 45.8974 1087.07 46.6082C1087.69 47.2244 1088.17 47.968 1088.47 48.7877C1088.76 49.5853 1088.91 50.4276 1088.91 51.276C1088.91 52.925 1088.53 54.2851 1087.76 55.3564C1087.02 56.4016 1085.98 57.201 1084.77 57.6525L1084.67 57.6903C1083.42 58.1585 1082.03 58.3277 1080.5 58.3383L1080.27 58.339L1079.91 58.3372L1079.74 58.3347L1079.54 58.33L1079.42 58.3253L1079.35 58.3216L1079.17 58.3151L1078.95 58.3106L1078.62 58.3082L1078.55 58.3081V64.4754C1078.56 64.5132 1078.55 64.5518 1078.54 64.588C1078.53 64.6242 1078.51 64.6571 1078.48 64.6842C1078.45 64.7112 1078.42 64.7315 1078.39 64.7436C1078.35 64.7556 1078.31 64.7591 1078.27 64.7537H1074.59C1074.45 64.7537 1074.38 64.6716 1074.38 64.5064ZM1078.55 48.2466V54.6892C1078.8 54.7091 1079.05 54.7194 1079.29 54.7201H1080.31C1081.02 54.7178 1081.72 54.613 1082.39 54.4093L1082.52 54.3673C1083.14 54.1854 1083.68 53.8313 1084.1 53.3471C1084.49 52.8902 1084.69 52.2608 1084.7 51.4585L1084.7 51.3687C1084.72 50.7707 1084.56 50.1807 1084.25 49.6686C1083.93 49.1733 1083.46 48.7901 1082.91 48.5711C1082.19 48.2919 1081.42 48.1605 1080.65 48.1849L1080.26 48.1859L1080.01 48.1881L1079.78 48.1912L1079.44 48.1976L1079.2 48.2045L1079.08 48.2092L1078.91 48.2171L1078.76 48.2259L1078.68 48.2324L1078.61 48.2392L1078.58 48.2428L1078.55 48.2466ZM1100.86 53.5177C1100.32 53.2406 1099.75 53.0325 1099.16 52.8982L1099.02 52.8686C1098.37 52.7194 1097.7 52.6372 1097.04 52.6233L1096.87 52.6213C1096.48 52.6107 1096.09 52.6576 1095.71 52.7605C1095.47 52.8139 1095.26 52.9508 1095.11 53.1467C1095.01 53.3035 1094.95 53.486 1094.95 53.6723C1094.96 53.8531 1095.03 54.0269 1095.14 54.1668C1095.3 54.3587 1095.5 54.5195 1095.72 54.6415L1095.79 54.6769C1096.23 54.9142 1096.68 55.1258 1097.15 55.3105C1098.19 55.6578 1099.18 56.1301 1100.1 56.717C1100.73 57.114 1101.25 57.6611 1101.62 58.3091C1101.92 58.9226 1102.08 59.6014 1102.06 60.2873C1102.08 61.1932 1101.82 62.0832 1101.32 62.8378C1100.79 63.6037 1100.04 64.1991 1099.17 64.5532C1098.27 64.9517 1097.15 65.1574 1095.83 65.1709L1095.7 65.1716C1094.88 65.1799 1094.06 65.1083 1093.26 64.9578L1093.08 64.9243C1092.41 64.8001 1091.75 64.5924 1091.12 64.306C1091.06 64.2735 1091.01 64.2249 1090.97 64.1651C1090.93 64.1054 1090.91 64.0366 1090.91 63.9658V60.5966C1090.9 60.5639 1090.91 60.5308 1090.92 60.5008C1090.93 60.4709 1090.96 60.4452 1090.98 60.4265C1091.01 60.4115 1091.04 60.4049 1091.07 60.4077C1091.1 60.4105 1091.13 60.4224 1091.15 60.442C1091.89 60.8781 1092.69 61.1962 1093.53 61.3848C1094.27 61.5699 1095.03 61.6685 1095.79 61.6786C1096.51 61.6786 1097.04 61.5857 1097.38 61.4003C1097.53 61.33 1097.66 61.2166 1097.76 61.074C1097.85 60.9313 1097.89 60.7655 1097.89 60.5966C1097.89 60.3291 1097.74 60.0713 1097.43 59.8238C1097.3 59.7202 1097.11 59.6073 1096.87 59.4854L1096.75 59.4286L1096.63 59.3704L1096.57 59.3409L1096.43 59.2808C1096.41 59.2705 1096.38 59.2603 1096.36 59.2502L1096.21 59.1883L1096.14 59.1568L1095.98 59.0929L1095.89 59.0605L1095.72 58.9944L1095.54 58.9273C1094.57 58.5894 1093.65 58.1215 1092.81 57.5362C1092.2 57.116 1091.7 56.5602 1091.35 55.9133C1091.05 55.3042 1090.9 54.6311 1090.91 53.9504C1090.9 53.1325 1091.13 52.3301 1091.55 51.632C1092.04 50.8634 1092.74 50.2514 1093.56 49.8702C1094.47 49.4171 1095.6 49.1903 1096.96 49.19C1097.76 49.1836 1098.56 49.2405 1099.34 49.3601C1099.91 49.4324 1100.47 49.5832 1101 49.8083C1101.09 49.8328 1101.15 49.8956 1101.19 49.9784C1101.21 50.0538 1101.22 50.1317 1101.22 50.2102V53.3323C1101.22 53.4061 1101.19 53.4769 1101.12 53.5177C1101.08 53.5383 1101.04 53.549 1100.99 53.549C1100.95 53.549 1100.9 53.5383 1100.86 53.5177Z" fill="#31A8FF"/>
</g>
<defs>
<filter id="filter0_d_24_138" x="0" y="0" width="1410" height="120" filterUnits="userSpaceOnUse" color-interpolation-filters="sRGB">
<feFlood flood-opacity="0" result="BackgroundImageFix"/>
<feColorMatrix in="SourceAlpha" type="matrix" values="0 0 0 0 0 0 0 0 0 0 0 0 0 0 0 0 0 0 127 0" result="hardAlpha"/>
<feOffset dy="4"/>
<feGaussianBlur stdDeviation="2"/>
<feComposite in2="hardAlpha" operator="out"/>
<feColorMatrix type="matrix" values="0 0 0 0 0 0 0 0 0 0 0 0 0 0 0 0 0 0 0.25 0"/>
<feBlend mode="normal" in2="BackgroundImageFix" result="effect1_dropShadow_24_138"/>
<feBlend mode="normal" in="SourceGraphic" in2="effect1_dropShadow_24_138" result="shape"/>
</filter>
<clipPath id="clip0_24_138">
<rect width="31.92" height="45" fill="white" transform="translate(505 33)"/>
</clipPath>
<clipPath id="clip1_24_138">
<rect width="52.13" height="45" fill="white" transform="translate(407 33)"/>
</clipPath>
<clipPath id="clip2_24_138">
<rect width="50.53" height="45" fill="white" transform="translate(222 33)"/>
</clipPath>
<clipPath id="clip3_24_138">
<rect width="42.36" height="45" fill="white" transform="translate(319 33)"/>
</clipPath>
<clipPath id="clip4_24_138">
<rect width="56.48" height="45" fill="white" transform="translate(674 33)"/>
</clipPath>
<clipPath id="clip5_24_138">
<rect width="46.08" height="45" fill="white" transform="translate(1232 33)"/>
</clipPath>
<clipPath id="clip6_24_138">
<rect width="46.08" height="45" fill="white" transform="translate(1064 33)"/>
</clipPath>
</defs>
</svg>
