<svg width="57" height="45" viewBox="0 0 57 45" fill="none" xmlns="http://www.w3.org/2000/svg">
<g clip-path="url(#clip0_24_95)">
<path d="M11.734 0C8.51187 0 6.12753 2.82022 6.23429 5.87868C6.33687 8.81691 6.20363 12.6227 5.24562 15.7262C4.28474 18.8387 2.65944 20.8103 0.00488281 21.0635V23.9215C2.65944 24.1747 4.28474 26.1463 5.24562 29.259C6.20363 32.3625 6.33687 36.1679 6.23429 39.1063C6.12753 42.1643 8.51187 44.985 11.7344 44.985H44.7505C47.9729 44.985 50.3566 42.1648 50.2498 39.1063C50.1475 36.1681 50.2805 32.3625 51.2385 29.259C52.2 26.1465 53.8209 24.1745 56.4755 23.9215V21.0635C53.8209 20.8103 52.2 18.8387 51.2387 15.7262C50.2805 12.6232 50.1475 8.81713 50.2498 5.87868C50.3566 2.82066 47.9729 0 44.7505 0H11.7336H11.734ZM38.2902 27.6911C38.2902 31.9026 35.149 34.4565 29.9361 34.4565H21.0618C20.808 34.4565 20.5646 34.3556 20.3851 34.1761C20.2057 33.9966 20.1049 33.7532 20.1049 33.4994V11.4856C20.1049 11.3599 20.1296 11.2354 20.1777 11.1192C20.2258 11.0031 20.2963 10.8976 20.3851 10.8087C20.474 10.7197 20.5795 10.6492 20.6957 10.6011C20.8118 10.553 20.9363 10.5282 21.062 10.5282H29.8853C34.232 10.5282 37.0847 12.883 37.0847 16.498C37.0847 19.0354 35.1655 21.3071 32.7208 21.7048V21.8374C36.0492 22.2024 38.2902 24.5074 38.2902 27.6911ZM28.9681 13.5624H23.9085V20.7095H28.1702C31.4645 20.7095 33.2813 19.3829 33.2813 17.0115C33.2813 14.7896 31.7191 13.5624 28.9683 13.5624H28.9681ZM23.9085 23.5454V31.4215H29.1545C32.5842 31.4215 34.4014 30.0452 34.4014 27.4586C34.4014 24.8715 32.5337 23.5449 28.9339 23.5449H23.9085V23.5454Z" fill="#7E13F8"/>
</g>
<defs>
<clipPath id="clip0_24_95">
<rect width="56.48" height="45" fill="white"/>
</clipPath>
</defs>
</svg>
