<svg width="45" height="45" viewBox="0 0 45 45" fill="none" xmlns="http://www.w3.org/2000/svg">
<path d="M8.30004 38.2514L5.1416 2.8125H39.8591L36.6964 38.2458L22.4793 42.1875L8.30004 38.2514Z" fill="#1572B6"/>
<path d="M22.5 39.1753L33.9891 35.9902L36.6919 5.71082H22.5V39.1753Z" fill="#33A9DC"/>
<path d="M22.5 18.5498H28.2516L28.6481 14.099H22.5V9.75232H33.3984L33.2944 10.9181L32.227 22.8965H22.5V18.5498Z" fill="white"/>
<path d="M22.5271 29.8379L22.5074 29.8436L17.6671 28.5357L17.3577 25.0693H12.9941L13.603 31.8939L22.506 34.3661L22.5271 34.3604V29.8379Z" fill="#EBEBEB"/>
<path d="M27.8822 22.7124L27.3591 28.5329L22.5117 29.8407V34.3632L31.4217 31.8938L31.4878 31.1597L32.243 22.7124H27.8822Z" fill="white"/>
<path d="M22.5155 9.75232V14.099H12.0165L11.9293 13.1217L11.731 10.9181L11.627 9.75232H22.5155ZM22.5001 18.5498V22.8965H17.7202L17.633 21.9192L17.4362 19.7156L17.3321 18.5498H22.5001Z" fill="#EBEBEB"/>
</svg>
