<svg width="32" height="45" viewBox="0 0 32 45" fill="none" xmlns="http://www.w3.org/2000/svg">
<g clip-path="url(#clip0_24_110)">
<path d="M31.86 8.82129L28.9629 41.2761L15.9403 44.8864L2.95366 41.2811L0.0595703 8.82129H31.86Z" fill="#E44D26"/>
<path d="M15.96 42.1267L26.4829 39.2094L28.9585 11.4752H15.96V42.1267Z" fill="#F16529"/>
<path d="M10.3283 19.4375H15.9602V15.4564H5.97754L6.07277 16.5245L7.05131 27.4952H15.9602V23.5142H10.6922L10.3283 19.4375ZM11.2256 29.4858H7.22919L7.78689 35.7367L15.9419 38.0004L15.9602 37.9954V33.8534L15.9427 33.8581L11.509 32.6609L11.2256 29.4858Z" fill="#EBEBEB"/>
<path d="M3.01855 0H5.04168V1.99882H6.89242V0H8.91567V6.05294H6.89254V4.02607H5.04181V6.05294H3.01868V0H3.01855ZM11.576 2.0073H9.79523V0H15.3815V2.0073H13.5995V6.05294H11.5764V2.0073H11.5763H11.576ZM16.268 0H18.3775L19.6752 2.12684L20.9716 0H23.0819V6.05294H21.067V3.05277L19.6752 5.20492H19.6403L18.2475 3.05277V6.05294H16.268V0ZM24.0888 0H26.1125V4.05224H28.9576V6.05294H24.0887V0H24.0888Z" fill="black"/>
<path d="M15.9464 27.4952H20.8487L20.3865 32.6584L15.9463 33.8568V37.9986L24.1077 35.7367L24.1676 35.0641L25.1032 24.5832L25.2003 23.5142H15.9464V27.4952ZM15.9464 19.4278V19.4375H25.5626L25.6424 18.5427L25.8239 16.5245L25.919 15.4564H15.9464V19.4279V19.4278Z" fill="white"/>
</g>
<defs>
<clipPath id="clip0_24_110">
<rect width="31.92" height="45" fill="white"/>
</clipPath>
</defs>
</svg>
