<svg width="45" height="45" viewBox="0 0 45 45" fill="none" xmlns="http://www.w3.org/2000/svg">
<path d="M0 0H45V45H0V0Z" fill="#F7DF1E"/>
<path d="M11.8322 37.6052L15.2758 35.5211C15.9402 36.699 16.5446 37.6957 17.9942 37.6957C19.3838 37.6957 20.26 37.1522 20.26 35.0379V20.6594H24.4888V35.0977C24.4888 39.4776 21.9213 41.4713 18.1755 41.4713C14.7925 41.4713 12.8289 39.7193 11.832 37.6048M26.7857 37.152L30.2289 35.1585C31.1354 36.6388 32.3135 37.7261 34.3976 37.7261C36.15 37.7261 37.2672 36.85 37.2672 35.6417C37.2672 34.1919 36.1194 33.6782 34.1861 32.8327L33.1292 32.3792C30.0781 31.0807 28.0544 29.4495 28.0544 26.0059C28.0544 22.8341 30.4708 20.4175 34.2468 20.4175C36.9352 20.4175 38.8684 21.354 40.2578 23.8007L36.9651 25.9154C36.24 24.6165 35.4549 24.1031 34.2466 24.1031C33.008 24.1031 32.2227 24.8885 32.2227 25.9154C32.2227 27.184 33.008 27.6978 34.8204 28.4832L35.8775 28.9362C39.4722 30.4769 41.496 32.0475 41.496 35.5814C41.496 39.3878 38.5056 41.4719 34.4881 41.4719C30.5613 41.4719 28.0239 39.5991 26.7856 37.1522" fill="black"/>
</svg>
