<svg width="47" height="45" viewBox="0 0 47 45" fill="none" xmlns="http://www.w3.org/2000/svg">
<g clip-path="url(#clip0_24_125)">
<path d="M38.43 0H7.65C3.42502 0 0 3.42502 0 7.65V37.278C0 41.503 3.42502 44.928 7.65 44.928H38.43C42.655 44.928 46.08 41.503 46.08 37.278V7.65C46.08 3.42502 42.655 0 38.43 0Z" fill="#001E36"/>
<path d="M10.376 31.5064V11.7535C10.376 11.6095 10.4379 11.5372 10.5616 11.5372L10.7572 11.5366L11.0917 11.533L11.5564 11.5238L13.1134 11.4909L14.7829 11.4599C15.3701 11.4499 15.9522 11.4445 16.5293 11.4445C18.0953 11.4445 19.4141 11.6403 20.486 12.0318C21.4529 12.3589 22.3347 12.8974 23.0672 13.6082C23.6882 14.2244 24.1681 14.968 24.4738 15.7877C24.7629 16.5853 24.9095 17.4276 24.9067 18.276C24.9067 19.925 24.5252 21.2851 23.7628 22.3564C23.017 23.4016 21.9767 24.201 20.7748 24.6525L20.6716 24.6903C19.4165 25.1585 18.0265 25.3277 16.5021 25.3383L16.2652 25.339L15.9137 25.3372L15.7364 25.3347L15.5387 25.33L15.4196 25.3253L15.3472 25.3216L15.1692 25.3151L14.9516 25.3106L14.624 25.3082L14.5511 25.3081V31.4754C14.5565 31.5132 14.553 31.5518 14.541 31.588C14.5289 31.6242 14.5086 31.6571 14.4815 31.6842C14.4545 31.7112 14.4216 31.7315 14.3854 31.7436C14.3491 31.7556 14.3106 31.7591 14.2728 31.7537H10.5925C10.448 31.7537 10.376 31.6716 10.376 31.5064ZM14.5513 15.2466V21.6892C14.798 21.7091 15.0453 21.7194 15.2929 21.7201H16.3131C17.0165 21.7178 17.7158 21.613 18.389 21.4093L18.5233 21.3673C19.1358 21.1854 19.6831 20.8313 20.0999 20.3471C20.4873 19.8902 20.688 19.2608 20.7019 18.4585L20.7028 18.3687C20.719 17.7707 20.5634 17.1807 20.2544 16.6686C19.9296 16.1733 19.4601 15.7901 18.9098 15.5711C18.1912 15.2919 17.4237 15.1605 16.6531 15.1849L16.2611 15.1859L16.0138 15.1881L15.7778 15.1912L15.4448 15.1976L15.2018 15.2045L15.0756 15.2092L14.9069 15.2171L14.7633 15.2259L14.6814 15.2324L14.6107 15.2392L14.5795 15.2428L14.5513 15.2466ZM36.8587 20.5177C36.3194 20.2406 35.7474 20.0325 35.1562 19.8982L35.0194 19.8686C34.369 19.7194 33.705 19.6372 33.0378 19.6233L32.8711 19.6213C32.48 19.6107 32.0894 19.6576 31.7119 19.7605C31.4716 19.8139 31.2579 19.9508 31.1089 20.1467C31.0082 20.3035 30.9546 20.486 30.9545 20.6723C30.9601 20.8531 31.0253 21.0269 31.1399 21.1668C31.3039 21.3587 31.5012 21.5195 31.7222 21.6415L31.7891 21.6769C32.2299 21.9142 32.684 22.1258 33.1492 22.3105C34.1867 22.6578 35.1779 23.1301 36.1012 23.717C36.7303 24.114 37.2508 24.6611 37.6161 25.3091C37.9232 25.9226 38.077 26.6014 38.0643 27.2873C38.0828 28.1932 37.8239 29.0832 37.3223 29.8378C36.7854 30.6037 36.0396 31.1991 35.1739 31.5532C34.2672 31.9517 33.1537 32.1574 31.8336 32.1709L31.6964 32.1716C30.8781 32.1799 30.0608 32.1083 29.2564 31.9578L29.0843 31.9243C28.4069 31.8001 27.7476 31.5924 27.1214 31.306C27.0584 31.2735 27.0053 31.2249 26.9672 31.1651C26.9292 31.1054 26.9078 31.0366 26.905 30.9658V27.5966C26.9013 27.5639 26.9066 27.5308 26.9202 27.5008C26.9338 27.4709 26.9553 27.4452 26.9824 27.4265C27.009 27.4115 27.0394 27.4049 27.0698 27.4077C27.1002 27.4105 27.1289 27.4224 27.1523 27.442C27.8919 27.8781 28.6949 28.1962 29.5325 28.3848C30.2708 28.5699 31.0281 28.6685 31.7891 28.6786C32.5102 28.6786 33.0409 28.5857 33.3811 28.4003C33.5347 28.33 33.6646 28.2166 33.7552 28.074C33.8457 27.9313 33.8929 27.7655 33.8912 27.5966C33.8912 27.3291 33.7366 27.0713 33.4275 26.8238C33.2979 26.7202 33.112 26.6073 32.87 26.4854L32.7543 26.4286L32.6308 26.3704L32.566 26.3409L32.4303 26.2808C32.4067 26.2705 32.3832 26.2603 32.3596 26.2502L32.212 26.1883L32.1351 26.1568L31.9756 26.0929L31.8928 26.0605L31.7213 25.9944L31.5418 25.9273C30.5712 25.5894 29.6508 25.1215 28.806 24.5362C28.2018 24.116 27.7043 23.5602 27.3532 22.9133C27.0492 22.3042 26.8955 21.6311 26.905 20.9504C26.9033 20.1325 27.1279 19.3301 27.5541 18.632C28.0401 17.8634 28.7378 17.2514 29.5634 16.8702C30.4701 16.4171 31.6034 16.1903 32.9636 16.19C33.7603 16.1836 34.5563 16.2405 35.344 16.3601C35.9143 16.4324 36.472 16.5832 37.001 16.8083C37.0862 16.8328 37.1548 16.8956 37.1864 16.9784C37.2075 17.0538 37.2178 17.1317 37.2174 17.2102V20.3323C37.2219 20.4061 37.1864 20.4769 37.1247 20.5177C37.0834 20.5383 37.0378 20.549 36.9917 20.549C36.9455 20.549 36.9 20.5383 36.8587 20.5177Z" fill="#31A8FF"/>
</g>
<defs>
<clipPath id="clip0_24_125">
<rect width="46.08" height="45" fill="white"/>
</clipPath>
</defs>
</svg>
