<svg width="51" height="45" viewBox="0 0 51 45" fill="none" xmlns="http://www.w3.org/2000/svg">
<g clip-path="url(#clip0_24_104)">
<path d="M41.5447 14.5705C41.0069 14.386 40.4647 14.2151 39.9183 14.0579C40.0101 13.6829 40.0946 13.3125 40.1696 12.9485C41.4008 6.972 40.5959 2.1572 37.8468 0.571939C35.2109 -0.947797 30.9002 0.636873 26.5466 4.42576C26.1176 4.79983 25.698 5.18469 25.2884 5.57997C25.0142 5.31712 24.7351 5.05938 24.4514 4.80687C19.8886 0.75569 15.3152 -0.951745 12.569 0.638058C9.93551 2.16253 9.1557 6.68878 10.2641 12.3529C10.3744 12.9138 10.4989 13.4719 10.6375 14.0265C9.99018 14.2105 9.36551 14.4063 8.76768 14.6147C3.4182 16.4798 0.00195312 19.4027 0.00195312 22.4344C0.00195312 25.5657 3.66945 28.7064 9.24116 30.6108C9.69287 30.7646 10.1483 30.9071 10.6072 31.0381C10.4581 31.6355 10.3259 32.2369 10.2104 32.8417C9.15373 38.4075 9.97893 42.8267 12.6053 44.3415C15.3179 45.9059 19.8708 44.2981 24.3039 40.4228C24.6634 40.1077 25.015 39.7838 25.3583 39.4511C25.8019 39.8792 26.2573 40.2947 26.7241 40.6973C31.0184 44.3925 35.2595 45.8846 37.8833 44.3656C40.5933 42.7967 41.4742 38.0492 40.3306 32.2733C40.2406 31.8207 40.1395 31.3705 40.0277 30.9229C40.3474 30.8281 40.6612 30.7306 40.9672 30.6292C46.7595 28.7102 50.5283 25.6075 50.5283 22.4344C50.5283 19.3916 47.0017 16.449 41.5447 14.5705ZM40.2884 28.5805C40.0121 28.6719 39.7287 28.7601 39.4397 28.846C38.8002 26.8215 37.9373 24.669 36.8812 22.4449C37.889 20.2738 38.7187 18.1488 39.3402 16.1376C39.8572 16.2872 40.3587 16.4449 40.8422 16.6113C45.5179 18.221 48.3699 20.6007 48.3699 22.4344C48.3699 24.3876 45.2897 26.9232 40.2884 28.5805ZM38.2133 32.6925C38.7189 35.2464 38.791 37.5556 38.456 39.361C38.1552 40.9831 37.5501 42.0645 36.8017 42.4977C35.2095 43.4194 31.8043 42.2214 28.1319 39.0611C27.6977 38.6868 27.2741 38.3005 26.8614 37.9026C28.2852 36.3456 29.7081 34.5355 31.0968 32.5251C33.5394 32.3084 35.847 31.9539 37.9397 31.4702C38.0405 31.8754 38.1317 32.2829 38.2133 32.6925ZM17.2275 42.3385C15.6718 42.8877 14.4327 42.9035 13.6837 42.4717C12.09 41.5525 11.4274 38.004 12.3312 33.2443C12.4386 32.6819 12.5616 32.1225 12.7 31.5669C14.7697 32.0248 17.0605 32.354 19.5089 32.5525C20.907 34.5197 22.3709 36.3278 23.8462 37.9111C23.5327 38.2145 23.2117 38.5101 22.8837 38.7977C20.9232 40.5112 18.9588 41.727 17.2275 42.3385ZM9.93945 28.5685C7.4757 27.7263 5.44103 26.6319 4.04643 25.4376C2.79314 24.3645 2.16057 23.2989 2.16057 22.4344C2.16057 20.5946 4.9034 18.2479 9.4782 16.6529C10.0334 16.4595 10.6145 16.2769 11.2174 16.1056C11.8498 18.1622 12.6791 20.3125 13.68 22.4869C12.6661 24.6935 11.8249 26.8782 11.1864 28.959C10.7676 28.8391 10.3518 28.7088 9.93945 28.5685ZM12.3825 11.9382C11.4329 7.08549 12.0635 3.4249 13.6506 2.50615C15.3408 1.5276 19.0786 2.92279 23.0183 6.42095C23.2752 6.64958 23.5279 6.88284 23.7764 7.12062C22.3083 8.697 20.8579 10.4917 19.4722 12.4472C17.0958 12.6675 14.8212 13.0211 12.7298 13.495C12.601 12.9791 12.4852 12.4601 12.3825 11.9384V11.9382ZM34.1773 17.32C33.6833 16.4668 33.171 15.6243 32.6408 14.7931C34.2529 14.997 35.7975 15.2676 37.2479 15.5984C36.8125 16.9942 36.2698 18.4533 35.6309 19.9494C35.1639 19.0633 34.6793 18.1867 34.1773 17.32ZM25.2894 8.66325C26.2849 9.74187 27.282 10.946 28.2627 12.2526C26.2733 12.1586 24.2805 12.1582 22.291 12.2514C23.2727 10.9569 24.2783 9.75431 25.2894 8.66325ZM16.3445 17.3348C15.8487 18.1945 15.3731 19.0657 14.9181 19.9476C14.2896 18.4569 13.7518 16.991 13.3127 15.5755C14.7543 15.253 16.2916 14.9893 17.8934 14.7892C17.3572 15.6254 16.8408 16.4741 16.3445 17.3346V17.3348ZM17.9394 30.2333C16.2845 30.0485 14.7241 29.7985 13.2829 29.4846C13.7289 28.0438 14.2786 26.5468 14.9206 25.0241C15.3775 25.9067 15.8551 26.7784 16.3529 27.6385C16.8649 28.5227 17.395 29.3887 17.9394 30.2333ZM25.349 36.3576C24.3258 35.2539 23.3054 34.0328 22.3089 32.7195C23.2764 32.7574 24.2627 32.7767 25.2651 32.7767C26.295 32.7767 27.313 32.7537 28.315 32.709C27.3312 34.046 26.3378 35.2689 25.349 36.3576ZM35.6512 24.9463C36.3266 26.4858 36.8958 27.975 37.3478 29.3911C35.8829 29.7254 34.3012 29.9946 32.6347 30.1946C33.1687 29.348 33.6858 28.4908 34.1858 27.6237C34.6941 26.7422 35.1827 25.8495 35.6512 24.9463ZM32.3161 26.5452C31.5507 27.8748 30.7424 29.1791 29.8922 30.4561C28.3523 30.5652 26.8089 30.6193 25.2651 30.6185C23.6927 30.6185 22.1633 30.5696 20.6905 30.474C19.8182 29.2 18.9944 27.8934 18.2208 26.5571H18.221C17.4511 25.2278 16.732 23.8698 16.0652 22.486C16.7303 21.1018 17.4473 19.7431 18.2145 18.4129L18.2143 18.4131C18.9813 17.0824 19.7985 15.7814 20.6643 14.5129C22.1668 14.3992 23.7077 14.34 25.2649 14.34H25.2651C26.8295 14.34 28.3723 14.3998 29.8745 14.5142C30.7314 15.7809 31.5435 17.0775 32.309 18.4014C33.0788 19.7288 33.8053 21.0808 34.4872 22.4554C33.8123 23.844 33.0881 25.2081 32.3161 26.5452ZM36.7687 2.44181C38.4606 3.4176 39.1186 7.35253 38.0556 12.5127C37.9877 12.8419 37.9115 13.1773 37.8286 13.5173C35.7322 13.0334 33.4559 12.6736 31.0727 12.45C29.6844 10.4729 28.2458 8.67549 26.8016 7.11944C27.1801 6.7546 27.5676 6.39923 27.9637 6.05365C31.694 2.80753 35.1803 1.52582 36.7687 2.44181ZM25.2651 17.9226C27.7569 17.9226 29.777 19.9427 29.777 22.4344C29.777 24.9262 27.7569 26.9463 25.2651 26.9463C22.7733 26.9463 20.7533 24.9262 20.7533 22.4344C20.7533 19.9427 22.7733 17.9226 25.2651 17.9226Z" fill="#00D8FF"/>
</g>
<defs>
<clipPath id="clip0_24_104">
<rect width="50.53" height="45" fill="white"/>
</clipPath>
</defs>
</svg>
