<svg width="151" height="36" viewBox="0 0 151 36" fill="none" xmlns="http://www.w3.org/2000/svg">
<path d="M48.7584 14.0534C48.7584 11.4901 46.1243 8.76781 41.5664 8.76781C36.4479 8.76781 30.8251 12.3209 29.9657 19.4093C29.0877 26.5686 33.7952 29.7505 38.54 29.7505C43.2852 29.7505 45.7695 28.0005 48.3102 25.6672C46.1243 23.0685 43.3037 24.2707 42.762 24.5358C42.1642 24.8185 41.3983 25.2075 39.8291 25.2075C37.9983 25.2075 36.1303 24.4298 36.1303 21.1948C47.8619 20.0989 48.7584 16.6164 48.7584 14.0534ZM42.9487 14.4776C42.8741 15.2729 42.5378 16.6342 36.5974 17.3941C37.849 13.1872 40.2399 12.869 41.3423 12.869C42.3697 12.869 43.0233 13.6289 42.9487 14.4776ZM23.0724 15.1669C23.0724 15.1669 20.5509 22.6619 20.3451 23.2806C20.2704 22.6443 18.421 9.192 18.421 9.192C14.1245 9.192 11.8268 12.091 10.6126 15.1493C10.6126 15.1493 7.54878 22.6619 7.28748 23.2981C7.26861 22.7149 6.82034 15.2378 6.82034 15.2378C6.55875 11.4899 2.93486 9.20986 0.00195312 9.20986L3.55123 29.5914C8.05337 29.5739 10.4817 26.6925 11.7522 23.6341C11.7522 23.6341 14.4607 17.0054 14.5727 16.7048C14.5916 16.9875 16.5156 29.5914 16.5156 29.5914C21.0363 29.5914 23.4649 26.8867 24.7726 23.9347L31.1053 9.20986C26.6403 9.20986 24.2869 12.091 23.0724 15.1669ZM65.3467 8.73237C62.5633 8.73237 60.4338 10.1643 58.6404 12.2679V12.2503L60.2471 0C56.5483 0 53.5408 3.04047 52.9615 7.56558L50.1593 29.4324C52.2891 29.4324 54.5494 28.8491 55.7635 27.3642C56.847 28.6898 58.4723 29.7505 60.882 29.7505C67.1215 29.7505 71.3992 22.8918 71.3992 16.4573C71.3621 10.5885 68.3542 8.73265 65.3467 8.73265V8.73237ZM64.7678 19.2505C64.114 22.8388 62.003 25.2784 59.9666 25.2784C57.912 25.2784 57.034 24.4119 57.034 24.4119C57.4262 21.2654 57.6689 19.3387 58.4163 17.6771C59.1636 16.0155 60.9381 13.3638 62.7875 13.3638C64.5994 13.3638 65.4216 15.6441 64.7678 19.2502V19.2505ZM86.9789 9.2093H82.6263L82.6451 8.99721C82.9439 6.31033 83.6163 4.89628 85.8393 4.6666C87.3525 4.52512 88.0249 3.78251 88.193 2.96958C88.324 2.3333 88.7348 0.123349 88.7348 0.123349C79.9924 0.0703256 77.2465 3.6413 76.5366 9.08567L76.5177 9.20958H76.4242C75.0045 9.20958 73.4356 10.7297 73.174 12.6564L73.0805 13.3635H75.9948L73.5477 32.4901L72.8003 35.9196C72.8938 35.9196 73.0059 35.9372 73.0991 35.9372C77.1904 35.7957 79.8054 32.7377 80.3846 28.3007L82.2901 13.3635H83.6537C84.9985 13.3635 86.5681 12.091 86.8482 9.96949L86.9789 9.20958V9.2093ZM109.62 8.856C104.595 8.856 99.8498 12.3561 98.3926 17.8535C96.9357 23.3512 99.1399 29.8563 106.538 29.8563C113.916 29.8563 118.176 23.086 118.176 17.4469C118.176 11.8432 114.159 8.856 109.62 8.856ZM111.656 19.0733C111.394 21.5657 110.236 25.3487 107.061 25.3487C103.866 25.3487 104.314 20.9294 104.632 18.8258C104.968 16.5809 106.295 13.3811 109.153 13.3811C111.712 13.3811 111.955 16.2625 111.656 19.0733ZM143.002 15.1666C143.002 15.1666 140.48 22.6616 140.275 23.2803C140.2 22.644 138.351 9.19172 138.351 9.19172C134.054 9.19172 131.756 12.0907 130.542 15.149C130.542 15.149 127.478 22.6616 127.217 23.2979C127.198 22.7146 126.75 15.2375 126.75 15.2375C126.488 11.4896 122.864 9.20958 119.932 9.20958L123.462 29.5912C127.964 29.5736 130.393 26.6922 131.663 23.6339C131.663 23.6339 134.372 17.0051 134.465 16.7046C134.484 16.9873 136.408 29.5912 136.408 29.5912C140.929 29.5912 143.357 26.8864 144.665 23.9344L150.997 9.20986C146.551 9.20986 144.198 12.091 143.002 15.1669V15.1666ZM91.0888 0.123628L87.4271 28.0711L86.6801 31.5181C86.7733 31.5181 86.8854 31.536 86.9789 31.536C90.9204 31.483 93.7227 28.2126 94.2455 24.0938L96.3565 8.06065C96.9918 3.16409 93.9093 0.123907 91.0888 0.123907V0.123628Z" fill="#4353FF"/>
</svg>
