<svg width="47" height="45" viewBox="0 0 47 45" fill="none" xmlns="http://www.w3.org/2000/svg">
<g clip-path="url(#clip0_24_134)">
<path d="M38.43 0H7.65C3.42502 0 0 3.42502 0 7.65V37.278C0 41.503 3.42502 44.928 7.65 44.928H38.43C42.655 44.928 46.08 41.503 46.08 37.278V7.65C46.08 3.42502 42.655 0 38.43 0Z" fill="#470137"/>
<path d="M24.2243 11.8152L18.4745 21.3053L24.626 31.3826C24.6656 31.4532 24.6766 31.536 24.657 31.6145C24.6474 31.6479 24.6269 31.6562 24.5954 31.6575L24.5605 31.6569L24.518 31.6559C24.495 31.6559 24.4692 31.6569 24.4406 31.6616H20.0054L19.9183 31.6602C19.6793 31.6539 19.507 31.6197 19.4021 31.4444C18.9917 30.6449 18.5795 29.8463 18.1655 29.0487C17.7951 28.3374 17.4147 27.6313 17.0243 26.9307L16.8518 26.6222C16.3849 25.7922 15.9263 24.9576 15.4763 24.1184H15.4453C15.0297 24.9488 14.602 25.7732 14.1624 26.5912C13.7191 27.4156 13.2812 28.235 12.8486 29.0487C12.4158 29.8632 11.9728 30.6721 11.5195 31.4753C11.4466 31.6391 11.3255 31.6733 11.1568 31.6789L11.0866 31.68H6.85175L6.83339 31.6805L6.77291 31.6859C6.73925 31.6879 6.71909 31.6807 6.71261 31.6299C6.70099 31.5546 6.71752 31.4776 6.75905 31.4136L12.725 21.6144L6.91349 11.7846C6.85175 11.7025 6.84149 11.6355 6.88253 11.5837C6.90534 11.5573 6.93398 11.5366 6.96619 11.5231C6.9984 11.5097 7.03329 11.5039 7.06811 11.5063H11.4266C11.5217 11.5011 11.6167 11.517 11.7049 11.5527C11.7787 11.5947 11.8422 11.6528 11.8903 11.7228C12.2613 12.5472 12.6735 13.3716 13.1269 14.1957C13.5768 15.0145 14.0354 15.8286 14.5025 16.6377C14.9624 17.4344 15.3904 18.249 15.7853 19.0798H15.8163C16.221 18.2492 16.6384 17.4249 17.0682 16.607C17.4903 15.8033 17.9232 14.9942 18.3663 14.1802C18.8039 13.3767 19.2315 12.5678 19.6492 11.7538C19.673 11.6775 19.7154 11.6084 19.7729 11.5527C19.8492 11.5141 19.935 11.498 20.0202 11.5063H24.0696C24.1069 11.497 24.1461 11.5001 24.1815 11.515C24.2168 11.53 24.2463 11.556 24.2656 11.5891C24.2849 11.6223 24.2929 11.6608 24.2884 11.699C24.2839 11.7371 24.2671 11.7727 24.2407 11.8004L24.2244 11.8155L24.2243 11.8152ZM33.3089 32.0603L33.0957 32.0627C31.6729 32.0844 30.2631 31.7887 28.9689 31.1972C27.7632 30.6392 26.7554 29.7283 26.0786 28.5851C25.3962 27.4518 25.046 26.0395 25.0283 24.3488L25.0276 24.2111C25.016 22.7923 25.3786 21.3956 26.0788 20.1616C26.7796 18.9403 27.8012 17.934 29.033 17.2517L29.139 17.1941C30.4782 16.4522 32.096 16.0812 33.9921 16.0812L34.0749 16.0821L34.1696 16.0851L34.2758 16.0898L34.3939 16.0967L34.5923 16.1107L34.8169 16.1287L34.9812 16.1431V10.0533C34.9812 9.90935 35.0432 9.83699 35.1666 9.83699H39.0617C39.0869 9.83337 39.1125 9.83568 39.1367 9.84372C39.1608 9.85176 39.1828 9.86531 39.2008 9.8833C39.2187 9.9013 39.2323 9.92323 39.2403 9.94737C39.2484 9.97152 39.2507 9.9972 39.2471 10.0224V28.2915C39.2471 28.5982 39.2589 28.9287 39.2827 29.2822L39.3403 30.0841L39.3709 30.548C39.3747 30.6122 39.359 30.6761 39.3259 30.7313C39.2928 30.7865 39.2438 30.8303 39.1853 30.8572C38.1805 31.2762 37.1339 31.587 36.0632 31.7844C35.1543 31.9522 34.233 32.0444 33.3089 32.0603ZM34.9812 28.2296V19.7906C34.8142 19.7454 34.6436 19.7144 34.4713 19.6979C34.2607 19.6767 34.0492 19.6664 33.8375 19.667C33.0874 19.6595 32.3461 19.829 31.6737 20.1616C31.0188 20.4872 30.4596 20.9771 30.0509 21.5836C29.6428 22.1805 29.4317 22.9599 29.4178 23.9218L29.4171 24.0257C29.4021 24.6995 29.5121 25.3702 29.7416 26.0039C29.9285 26.5145 30.2239 26.9786 30.6074 27.3641C30.9745 27.7187 31.4189 27.9833 31.9056 28.1369C32.4197 28.3034 32.9571 28.3869 33.4975 28.3844C33.7859 28.3844 34.0537 28.3739 34.3012 28.3532C34.4986 28.3384 34.6943 28.3059 34.8858 28.256L34.9812 28.2296Z" fill="#FF61F6"/>
</g>
<defs>
<clipPath id="clip0_24_134">
<rect width="46.08" height="45" fill="white"/>
</clipPath>
</defs>
</svg>
